# AST/ASF file generated using VICON BodyLanguage
# -----------------------------------------------
:version 1.10
:name VICON
:units
  mass 1.0
  length 0.45
  angle deg
:documentation
   .ast/.asf automatically generated from VICON data using
   VICON BodyBuilder and BodyLanguage model FoxedUp or BRILLIANT.MOD
:root
   order TX TY TZ RX RY RZ
   axis XYZ
   position 0 0 0  
   orientation 0 0 0 
:bonedata
  begin
     id 1 
     name lhipjoint
     direction 0.621036 -0.695554 0.361275 
     length 2.46325 
     axis 0 0 0  XYZ
  end
  begin
     id 2 
     name lfemur
     direction 0.34202 -0.939693 0  
     length 6.54784  
     axis 0 0 20  XYZ
    dof rx ry rz
    limits (-160.0 20.0)
           (-70.0 70.0)
           (-60.0 70.0)
  end
  begin
     id 3 
     name ltibia
     direction 0.34202 -0.939693 0   
     length 7.84737   
     axis 0 0 20   XYZ
    dof rx
    limits (-10.0 170.0)
  end
  begin
     id 4 
     name lfoot
     direction 0.0790693 -0.217241 0.97291   
     length 2.59747   
     axis -90 7.62852e-016 20   XYZ
    dof rx rz
    limits (-45.0 90.0)
           (-70.0 20.0)
  end
  begin
     id 5 
     name ltoes
     direction 1.53572e-011 -4.21898e-011 1   
     length 1.29919   
     axis -90 7.62852e-016 20   XYZ
    dof rx
    limits (-90.0 20.0)
  end
  begin
     id 6 
     name rhipjoint
     direction -0.602353 -0.708375 0.367935   
     length 2.41867  
     axis 0 0 0  XYZ 
  end
  begin
     id 7 
     name rfemur
     direction -0.34202 -0.939693 0   
     length 6.92065   
     axis 0 0 -20   XYZ
    dof rx ry rz
    limits (-160.0 20.0)
           (-70.0 70.0)
           (-70.0 60.0)
  end
  begin
     id 8 
     name rtibia
     direction -0.34202 -0.939693 0   
     length 7.88883   
     axis 0 0 -20   XYZ
    dof rx
    limits (-10.0 170.0)
 end
 begin
     id 9 
     name rfoot
     direction -0.0768692 -0.211196 0.974416   
     length 2.43714  
     axis -90 -7.62852e-016 -20   XYZ
    dof rx rz
    limits (-45.0 90.0)
           (-20.0 70.0)
  end
  begin
     id 10 
     name rtoes
     direction -1.53575e-011 -4.21933e-011 1   
     length 1.22113   
     axis -90 -7.62852e-016 -20   XYZ
    dof rx
    limits (-90.0 20.0)
  end
  begin
     id 11 
     name lowerback
     direction 0.0197937 0.98943 -0.143655   
     length 2.16931   
     axis 0 0 0   XYZ
    dof rx ry rz
    limits (-20.0 45.0)
           (-30.0 30.0)
           (-30.0 30.0)
  end
  begin
     id 12 
     name upperback
     direction -0.00183968 0.999975 0.00684288   
     length 2.17221   
     axis 0 0 0   XYZ
    dof rx ry rz
    limits (-20.0 45.0)
           (-30.0 30.0)
           (-30.0 30.0)
  end
  begin
     id 13 
     name thorax
     direction -0.00950244 0.997208 0.0740685   
     length 2.22549   
     axis 0 0 0   XYZ
    dof rx ry rz
    limits (-20.0 45.0)
           (-30.0 30.0)
           (-30.0 30.0)
  end
  begin
     id 14 
     name lowerneck
     direction 0.0218238 0.996215 0.0841425   
     length 1.77269   
     axis 0 0 0   XYZ
    dof rx ry rz
    limits (-20.0 45.0)
           (-30.0 30.0)
           (-30.0 30.0)
  end
  begin
     id 15 
     name upperneck
     direction -0.00430652 0.994214 -0.107332   
     length 1.76534   
     axis 0 0 0   XYZ
    dof rx ry rz
    limits (-20.0 45.0)
           (-30.0 30.0)
           (-30.0 30.0)
  end
  begin
     id 16
     name head
     direction -0.00328946 0.998959 -0.0454998  
     length 1.82634  
     axis 0 0 0   XYZ
    dof rx ry rz
    limits (-20.0 45.0)
           (-30.0 30.0)
           (-30.0 30.0)
  end
  begin
     id 17 
     name lclavicle
     direction 0.970962 0.239191 0.00450212  
     length 3.84872  
     axis 0 0 0   XYZ
    dof ry rz
    limits (-20.0 10.0)
           (0.0 20.0)
  end
  begin
     id 18 
     name lhumerus
     direction 1 -4.48966e-011 5.74696e-028   
     length 5.22771   
     axis 180 -30 -90   XYZ
    dof rx ry rz
    limits (-60.0 90.0)
           (-90.0 90.0)
           (-90.0 90.0)
  end
  begin
     id 19
     name lradius
     direction 1 -4.4896e-011 4.25109e-027   
     length 3.45251   
     axis 180 -30 -90   XYZ
    dof rx
    limits (-10.0 170.0)
  end
  begin
     id 20
     name lwrist
     direction 1 -4.48971e-011 1.15382e-027   
     length 1.72626   
     axis -5.52449e-016 90 90   XYZ
    dof ry
    limits (-180.0 0.0)
 end
  begin
     id 21 
     name lhand
     direction 1 -4.49034e-011 2.30765e-027   
     length 0.552119   
     axis -1.47248e-015 90 90   XYZ
    dof rx rz
    limits (-90.0 90.0)
           (-45.0 45.0)
  end
  begin
     id 22 
     name lfingers
     direction 1 -4.48951e-011 4.61529e-027   
     length 0.445133   
     axis -2.94495e-015 90 90   XYZ
    dof rx
    limits (0.0 90.0)
  end
  begin
     id 23
     name lthumb
     direction 0.707107 -6.34991e-011 0.707107   
     length 0.639124   
     axis -90 45 2.85299e-015   XYZ
    dof rx rz
    limits (-45.0 45.0)
           (-45.0 45.0)
  end
  begin
     id 24 
     name rclavicle
     direction -0.97424 0.222511 -0.0366699   
     length 3.73439  
     axis 0 0 0   XYZ 
    dof ry rz
    limits (-10.0 20.0)
           (-20.0 0.0)
  end
  begin
     id 25 
     name rhumerus
     direction -1 -4.48956e-011 -4.97258e-028  
     length 5.2398   
     axis 180 30 90   XYZ
    dof rx ry rz
    limits (-90.0 60.0)
           (-90.0 90.0)
           (-90.0 90.0)
  end
  begin
     id 26 
     name rradius
     direction -1 -4.4897e-011 -1.72611e-027   
     length 3.48042   
     axis 180 30 90   XYZ
    dof rx
    limits (-10.0 170.0)
  end
  begin
     id 27 
     name rwrist
     direction -1 -4.48976e-011 1.15382e-027   
     length 1.74021   
     axis -5.52449e-016 -90 -90   XYZ
    dof ry
    limits (-180.0 0.0)
  end
  begin
     id 28
     name rhand
     direction -1 -4.48963e-011 2.30765e-027   
     length 0.618713   
     axis -1.47248e-015 -90 -90   XYZ
    dof rx rz
    limits (-90.0 90.0)
           (-45.0 45.0)
  end
  begin
     id 29
     name rfingers
     direction -1 -4.4888e-011 4.61529e-027   
     length 0.498823   
     axis -2.94495e-015 -90 -90   XYZ
    dof rx
    limits (0.0 90.0)
  end
  begin
     id 30
     name rthumb
     direction -0.707107 -6.34968e-011 0.707107   
     length 0.716213   
     axis -90 -45 -2.85299e-015   XYZ
    dof rx rz
    limits (-45.0 45.0)
           (-45.0 45.0)
  end
:hierarchy
  begin
    root lhipjoint rhipjoint lowerback
    lhipjoint lfemur
    lfemur ltibia
    ltibia lfoot
    lfoot ltoes
    rhipjoint rfemur
    rfemur rtibia
    rtibia rfoot
    rfoot rtoes
    lowerback upperback
    upperback thorax
    thorax lowerneck lclavicle rclavicle
    lowerneck upperneck
    upperneck head
    lclavicle lhumerus
    lhumerus lradius
    lradius lwrist
    lwrist lhand lthumb
    lhand lfingers
    rclavicle rhumerus
    rhumerus rradius
    rradius rwrist
    rwrist rhand rthumb
    rhand rfingers
  end

#!OML:ASF G:\JayActor3\Patient Classification 1\Patient 1\Session 5\male.ASF
:FULLY-SPECIFIED
:DEGREES
79
root 51.8648 14.726 -5.82419 47.5424 -86.5337 -23.4567
lowerback 29.0208 -1.16692 2.25946
upperback 7.88344 -1.50851 -0.0168496
thorax -7.176 -0.998513 -0.774776
lowerneck 1.37663 -6.85307 -3.09952
upperneck -24.9654 -8.93548 9.30782
head -7.25808 -5.35828 4.19198
rclavicle -2.98177e-014 -3.77691e-014
rhumerus -22.629 12.3468 -91.7017
rradius 58.8235
rwrist -12.6949
rhand -13.182 -10.3108
rfingers 7.12502
rthumb 12.9177 -39.891
lclavicle -2.98177e-014 -3.77691e-014
lhumerus -21.0511 -7.20924 85.4896
lradius 55.9104
lwrist 28.4865
lhand -9.464 16.043
lfingers 7.12502
lthumb 16.4997 45.3615
rfemur -67.1464 -2.86373 22.379
rtibia 67.935
rfoot -22.1996 -5.43083
rtoes 1.82936
lfemur -64.4743 8.49888 -20.5839
ltibia 62.0406
lfoot -19.6011 -1.24042
ltoes -3.0664
80
root 51.8652 14.7261 -5.82393 47.6272 -86.5278 -23.531
lowerback 29.0155 -1.1702 2.26469
upperback 7.88389 -1.51101 -0.0142839
thorax -7.17305 -0.999688 -0.774197
lowerneck 1.38143 -6.85248 -3.10092
upperneck -24.9571 -8.93358 9.31122
head -7.25599 -5.35723 4.19295
rclavicle -1.78906e-014 -1.61016e-014
rhumerus -22.6192 12.3415 -91.7057
rradius 58.8222
rwrist -12.6972
rhand -13.1835 -10.3114
rfingers 7.12502
rthumb 12.9163 -39.8917
lclavicle -1.78906e-014 -1.61016e-014
lhumerus -21.0481 -7.19969 85.486
lradius 55.9091
lwrist 28.481
lhand -9.44538 16.1013
lfingers 7.12502
lthumb 16.5177 45.4182
rfemur -67.1558 -2.85942 22.3838
rtibia 67.9298
rfoot -22.1996 -5.43381
rtoes 1.8415
lfemur -64.49 8.49904 -20.5802
ltibia 62.0407
lfoot -19.5972 -1.23864
ltoes -3.07988
81
root 51.8654 14.7263 -5.82365 47.669 -86.5216 -23.5635
lowerback 29.0092 -1.17434 2.26828
upperback 7.88497 -1.51506 -0.0111776
thorax -7.16893 -1.00158 -0.771574
lowerneck 1.37636 -6.85129 -3.10166
upperneck -24.9383 -8.93164 9.30968
head -7.24903 -5.35543 4.1911
rclavicle 2.78299e-015 1.98785e-015
rhumerus -22.6073 12.3379 -91.7073
rradius 58.819
rwrist -12.7003
rhand -13.1826 -10.3073
rfingers 7.12502
rthumb 12.9172 -39.8875
lclavicle 2.78299e-015 1.98785e-015
lhumerus -21.0465 -7.18812 85.4836
lradius 55.9093
lwrist 28.4763
lhand -9.42711 16.1675
lfingers 7.12502
lthumb 16.5353 45.483
rfemur -67.1643 -2.85992 22.3879
rtibia 67.9263
rfoot -22.2004 -5.43192
rtoes 1.85689
lfemur -64.5033 8.49624 -20.5778
ltibia 62.0407
lfoot -19.594 -1.23555
ltoes -3.09573
82
root 51.8656 14.7264 -5.8234 47.672 -86.5157 -23.5581
lowerback 29.0027 -1.17807 2.27056
upperback 7.88571 -1.51894 -0.00829722
thorax -7.16504 -1.00337 -0.768511
lowerneck 1.36665 -6.85169 -3.09966
upperneck -24.9142 -8.93249 9.3039
head -7.23972 -5.35466 4.18702
rclavicle -1.11319e-014 1.53064e-014
rhumerus -22.5962 12.3318 -91.7074
rradius 58.8158
rwrist -12.7039
rhand -13.1803 -10.3025
rfingers 7.12502
rthumb 12.9194 -39.8825
lclavicle -1.11319e-014 1.53064e-014
lhumerus -21.0461 -7.17654 85.4825
lradius 55.9106
lwrist 28.4687
lhand -9.40331 16.2399
lfingers 7.12502
lthumb 16.5582 45.5534
rfemur -67.1731 -2.86342 22.3908
rtibia 67.9245
rfoot -22.1998 -5.43036
rtoes 1.86155
lfemur -64.5151 8.49097 -20.5764
ltibia 62.0407
lfoot -19.5912 -1.23315
ltoes -3.10896
83
root 51.8659 14.7264 -5.82318 47.6326 -86.5102 -23.5112
lowerback 28.9957 -1.18168 2.27157
upperback 7.88638 -1.52302 -0.00565889
thorax -7.16101 -1.00523 -0.764925
lowerneck 1.35415 -6.85363 -3.09559
upperneck -24.8879 -8.93577 9.296
head -7.22929 -5.355 4.18175
rclavicle 2.38542e-015 2.68359e-014
rhumerus -22.5855 12.3238 -91.7065
rradius 58.8127
rwrist -12.7088
rhand -13.1782 -10.2959
rfingers 7.12502
rthumb 12.9214 -39.8758
lclavicle 2.38542e-015 2.68359e-014
lhumerus -21.0461 -7.16793 85.4849
lradius 55.9111
lwrist 28.4749
lhand -9.39847 16.2633
lfingers 7.12502
lthumb 16.5628 45.5765
rfemur -67.1825 -2.87047 22.3928
rtibia 67.9247
rfoot -22.1976 -5.42957
rtoes 1.853
lfemur -64.525 8.48347 -20.5768
ltibia 62.0402
lfoot -19.5884 -1.22934
ltoes -3.12309
84
root 51.866 14.7263 -5.823 47.5885 -86.5072 -23.4632
lowerback 28.9926 -1.18394 2.27008
upperback 7.88677 -1.5261 -0.00358703
thorax -7.15909 -1.00664 -0.760782
lowerneck 1.34627 -6.85495 -3.09254
upperneck -24.8634 -8.9379 9.28944
head -7.22023 -5.35483 4.17738
rclavicle 3.1408e-014 3.67752e-014
rhumerus -22.5779 12.314 -91.7059
rradius 58.8116
rwrist -12.712
rhand -13.1753 -10.292
rfingers 7.12502
rthumb 12.9242 -39.8718
lclavicle 3.1408e-014 3.67752e-014
lhumerus -21.0465 -7.15819 85.488
lradius 55.9116
lwrist 28.4823
lhand -9.38938 16.2802
lfingers 7.12502
lthumb 16.5716 45.5926
rfemur -67.1885 -2.87674 22.3934
rtibia 67.9258
rfoot -22.1943 -5.42796
rtoes 1.8466
lfemur -64.5299 8.47684 -20.5779
ltibia 62.0398
lfoot -19.5869 -1.22208
ltoes -3.14592
85
root 51.8661 14.7262 -5.82288 47.5403 -86.5076 -23.4153
lowerback 28.9941 -1.18476 2.26676
upperback 7.88635 -1.52795 -0.0030824
thorax -7.16029 -1.00748 -0.75764
lowerneck 1.35013 -6.85832 -3.09074
upperneck -24.8492 -8.94207 9.28816
head -7.21608 -5.35634 4.1762
rclavicle 3.02153e-014 4.39314e-014
rhumerus -22.5774 12.3006 -91.708
rradius 58.8141
rwrist -12.7121
rhand -13.1765 -10.2827
rfingers 7.12502
rthumb 12.9231 -39.8625
lclavicle 3.02153e-014 4.39314e-014
lhumerus -21.05 -7.15399 85.4931
lradius 55.9117
lwrist 28.5121
lhand -9.41101 16.2153
lfingers 7.12502
lthumb 16.5508 45.5295
rfemur -67.1908 -2.88201 22.3923
rtibia 67.9281
rfoot -22.191 -5.42549
rtoes 1.83968
lfemur -64.5294 8.47185 -20.58
ltibia 62.0397
lfoot -19.5871 -1.21545
ltoes -3.15811
86
root 51.8662 14.7259 -5.82279 47.5034 -86.5103 -23.3822
lowerback 28.999 -1.18444 2.26253
upperback 7.88634 -1.52876 -0.00381834
thorax -7.16261 -1.00789 -0.755638
lowerneck 1.35578 -6.86139 -3.08683
upperneck -24.8375 -8.94556 9.28746
head -7.21324 -5.35782 4.17507
rclavicle 3.29983e-014 3.3197e-014
rhumerus -22.5782 12.2799 -91.7099
rradius 58.8182
rwrist -12.6896
rhand -13.1667 -10.3041
rfingers 7.12502
rthumb 12.9325 -39.8834
lclavicle 3.29983e-014 3.3197e-014
lhumerus -21.0518 -7.14723 85.4964
lradius 55.912
lwrist 28.533
lhand -9.42364 16.1672
lfingers 7.12502
lthumb 16.5386 45.4824
rfemur -67.189 -2.88603 22.3906
rtibia 67.9309
rfoot -22.1881 -5.42188
rtoes 1.8304
lfemur -64.5243 8.46882 -20.5818
ltibia 62.0408
lfoot -19.5897 -1.21122
ltoes -3.15765
87
root 51.866 14.7257 -5.82269 47.4764 -86.5154 -23.3632
lowerback 29.0064 -1.18279 2.25803
upperback 7.88738 -1.52817 -0.00547898
thorax -7.16495 -1.00768 -0.754954
lowerneck 1.36614 -6.8654 -3.08527
upperneck -24.8312 -8.94968 9.2915
head -7.21252 -5.36001 4.17643
rclavicle 1.27222e-014 2.68359e-014
rhumerus -22.5819 12.259 -91.7133
rradius 58.8238
rwrist -12.6749
rhand -13.1669 -10.3132
rfingers 7.12502
rthumb 12.9323 -39.8924
lclavicle 1.27222e-014 2.68359e-014
lhumerus -21.0502 -7.14401 85.5
lradius 55.9094
lwrist 28.5625
lhand -9.45205 16.0774
lfingers 7.12502
lthumb 16.5113 45.3949
rfemur -67.1824 -2.88953 22.3882
rtibia 67.9345
rfoot -22.1873 -5.41487
rtoes 1.82809
lfemur -64.5141 8.46778 -20.5837
ltibia 62.0435
lfoot -19.5951 -1.20741
ltoes -3.15358
88
root 51.8658 14.7254 -5.82264 47.4697 -86.5207 -23.3648
lowerback 29.014 -1.18117 2.25479
upperback 7.88811 -1.52733 -0.00786857
thorax -7.16777 -1.00736 -0.755878
lowerneck 1.37118 -6.86967 -3.08366
upperneck -24.8206 -8.95399 9.29606
head -7.20945 -5.36224 4.17744
rclavicle 1.47101e-014 1.27222e-014
rhumerus -22.587 12.2398 -91.7175
rradius 58.8297
rwrist -12.6632
rhand -13.1692 -10.3241
rfingers 7.12502
rthumb 12.9301 -39.9035
lclavicle 1.47101e-014 1.27222e-014
lhumerus -21.0466 -7.13877 85.5023
lradius 55.9068
lwrist 28.5835
lhand -9.48094 15.9997
lfingers 7.12502
lthumb 16.4834 45.3195
rfemur -67.1752 -2.89228 22.387
rtibia 67.9392
rfoot -22.1888 -5.40517
rtoes 1.8355
lfemur -64.5045 8.46833 -20.5842
ltibia 62.0489
lfoot -19.6022 -1.20668
ltoes -3.13919
